<?xml version="1.0" encoding="utf-8"?>
<svg version="1.1" xmlns="http://www.w3.org/2000/svg" viewBox="0 0 306.8 294.5" style="enable-background:new 0 0 306.8 294.5;" xml:space="preserve">
<style type="text/css">.st0{fill:#FFFFFF;stroke:#FFFFFF;stroke-width:0.75;stroke-miterlimit:10;}</style>
<path class="st0" d="M269.3,36C219.8-11.5,87-11.5,37.5,36C-12,83.5-12,211,37.5,258.5c49.5,47.5,182.3,47.5,231.8,0C318.7,211,318.7,83.5,269.3,36z M250.9,248.7c-41.6,43.3-153.4,43.3-195,0c-41.6-43.3-41.6-159.7,0-203s153.4-43.3,195,0S292.5,205.4,250.9,248.7z"/>
<path class="st0" d="M161.9,113c-3.8-2.8-8-5.2-12.4-7.5l0.2-0.9l2-7.5C156,81.5,160,80.4,178,79.4l1.3-5.1h-65.3l-1.3,5.1c17,1,20.5,2,16.9,16.3c-0.1,0.5-0.2,1-0.4,1.5l-5.6,20.8l-16.2,59.8c-19.2-3.6-35.3-15.7-46.6-38.2l-4.6,1.2l9.9,43.8h4.8l5.6-9c7.8,5,17.7,8.8,28.5,10.7l0,0c5.5,0.9,11.3,1.3,17.1,1.3c1.7,0,3.4-0.1,5.1-0.1c19.5-1,35-8.2,43.9-19.7c5.2-6.8,8.1-15,8.1-24.4C179.4,129.7,172,120.4,161.9,113z M129.8,178.3l13.4-49.4c8.6,6,14.6,13.2,14.6,23.1C157.7,167.1,145,176,129.8,178.3z"/>
<path class="st0" d="M125.6,93.7C109.9,86.6,97,79.2,97,66.8c0-11.6,12.3-21.2,34-21.2c28.8,0,43.8,12.2,57.2,35.3l5.1-1.2l-10.7-39.7h-5.1l-5.1,7.5c-8.3-5.5-22.8-10.6-43.1-10.6c-29.3,0-55.2,14.1-55.2,37.1c0,21.7,23.7,31.9,45.7,42l5.6-20.8C125.4,94.7,125.5,94.2,125.6,93.7z"/>
<path class="st0" d="M204,186.4c-0.7,0.5-1.3,1-2,1.5l0.3,0.8L204,186.4z"/>
<path class="st0" d="M179.1,202.4c-11.6,6-24.5,9.5-40.2,9.5h-13.9c-4.1,0-5.5-2.2-4.7-6.1l3.7-14.2c-1.6,0.1-3.2,0.1-4.9,0.1c-5.6,0-11.1-0.5-16.4-1.3l-2,7.9c-3.8,15.5-7.7,16.7-24.9,17.7l-1.3,5.1h100.8l4-17.7L179.1,202.4z"/>
<path class="st0" d="M230,111l-1,5.1c11.6,1,13.5,5.5,5.7,17.7l-33.1,50.5l-0.6,0.9l-14.6-50.5c-3.8-12.9,1.4-18.1,15.4-19.2l1.2-5.6h-37.8c11.4,8,19.6,18.2,19.6,33.2c0,10.2-3.3,19.3-9.1,26.7l8.8,30.5l-3,14.6l-3.3,15.9c-3.2,15.5-6.1,16.7-19.7,17.7l-1.2,5.1h49.4l1.2-5.1c-13.3-1-15.7-2.2-12.5-17.7l6.6-32.6l42-64.4c7.8-12.4,11.5-16.7,21.3-17.7l1-5.1H230z"/>
</svg>